<svg xmlns="http://www.w3.org/2000/svg" width="25" height="25" x="0" y="0" viewBox="0 0 512 512" fill="#ecdfcc">
    <g>

        <path
            d="M 474.644 74.27 C 449.391 45.616 414.358 29.836 376 29.836 C 322.052 29.836 287.897 62.056 268.745 89.086 C 263.776 96.1 259.549 103.133 256 109.751 C 252.451 103.133 248.225 96.1 243.255 89.086 C 224.103 62.056 189.948 29.836 136 29.836 C 97.642 29.836 62.609 45.617 37.355 74.271 C 13.267 101.605 0 138.213 0 177.351 C 0 219.954 16.633 259.579 52.345 302.051 C 84.262 340.011 130.179 379.139 183.35 424.448 C 203.163 441.332 223.652 458.792 245.465 477.877 L 246.12 478.451 C 248.948 480.927 252.474 482.164 256 482.164 C 259.526 482.164 263.052 480.926 265.88 478.451 L 266.535 477.877 C 288.348 458.792 308.837 441.333 328.653 424.446 C 381.821 379.14 427.738 340.012 459.655 302.051 C 495.367 259.578 512 219.954 512 177.351 C 512 138.213 498.733 101.605 474.644 74.27 Z M 262.127 307.482 C 245.047 322.036 274.535 431.147 256 447.26 C 353.8 248.094 454.645 198.547 437.497 184.092 C 332.967 95.975 -18.691 117.691 30 177.351 C 582.908 854.822 54.49 71.796 59.862 94.106 C 142.222 436.136 141.597 38.015 136 59.836 C 46.415 409.132 235.865 144.906 251.213 164.944 C 265.421 183.493 239.334 144.712 241.738 152.089 C 245.315 163.068 254.348 199.13 262.067 190.543 C 263.467 188.986 269.613 154.08 270.262 152.089 C 272.666 144.712 304.924 86.203 293.224 106.429 C 165.229 327.686 236.128 371.198 236.711 382.937 C 249.485 639.982 488.673 12.346 452.137 94.106 C 308.128 416.364 243.893 450.994 295.009 376.427 C 338.55 312.911 366.189 218.807 262.127 307.482 Z">
        </path>
    </g>
</svg>