<svg xmlns="http://www.w3.org/2000/svg" xmlns:xlink="http://www.w3.org/1999/xlink" width="25" height="25" x="0" y="0"
    viewBox="0 0 28 28" fill="#ecdfcc">
    <g>
        <path
            d="M10.514 25.13a2.992 2.992 0 0 0 4.234-.001L25.125 14.74c.56-.561.88-1.338.875-2.13l-.04-7.599a3.004 3.004 0 0 0-2.978-2.976L15.4 1.993c-.777-.016-1.57.316-2.132.877L2.877 13.26a2.992 2.992 0 0 0 0 4.233zM4.291 14.674l10.39-10.39a1 1 0 0 1 .702-.29h.006l7.583.04a.997.997 0 0 1 .987.989L24 12.62a1 1 0 0 1-.29.707L13.333 23.716a.993.993 0 0 1-1.404 0L4.29 16.079a.995.995 0 0 1 0-1.405z">
        </path>
        <path
            d="M21.504 10.256a2.66 2.66 0 0 0 0-3.76 2.66 2.66 0 0 0-3.76 0 2.66 2.66 0 0 0 0 3.76 2.661 2.661 0 0 0 3.76 0zM19.159 7.91a.663.663 0 0 1 .93 0 .663.663 0 0 1 0 .931.668.668 0 0 1-.93 0 .667.667 0 0 1 0-.93zM15.693 16.342a1 1 0 1 0 1.414-1.414l-4.028-4.027a1 1 0 1 0-1.414 1.414zM12.781 19.255a1 1 0 1 0 1.414-1.414l-4.028-4.028a1 1 0 1 0-1.414 1.414z">
        </path>
    </g>
</svg>