<svg xmlns="http://www.w3.org/2000/svg" version="1.1" width="25" height="25" x="0" y="0" viewBox="0 0 512.148 512.148" stroke="#ecdfcc" fill="none">
  <defs>
    <mask id="mask-0">
      <path style="fill: rgb(255, 255, 255); stroke: rgb(0, 0, 0);" d="M 355.335 190.397 L 96.767 250.528 L 358.771 252.247 L 359.63 305.506 L 496.216 330.418 L 495.357 -8.898 L -63.872 -4.603 L -57.307 190.952 L 329.967 95.108"></path>
    </mask>
    <mask id="mask-1">
      <path style="fill: rgb(255, 255, 255); stroke: rgb(0, 0, 0);" d="M 430.235 226.963 C 418.962 223.206 404.072 227.355 397.592 233.835 C 395.526 235.901 391.771 234.63 389.002 235.554 C 385.86 236.6 378.563 244.803 374.397 247.58 C 358.755 258.008 350.419 262.895 343.473 276.787 C 342.251 279.231 337.284 281.434 335.741 284.518 C 333.266 289.47 334.094 296.403 331.446 301.699 C 330.734 303.123 332.643 309.092 331.446 310.289 C 328.191 313.544 324.531 339.411 328.01 346.369 C 331.698 353.745 334.583 365.828 340.036 371.281 C 344.519 375.763 352.309 380.117 356.357 384.166 C 358.475 386.283 359.249 389.948 360.653 392.756 C 361.983 395.417 368.132 397.658 370.102 399.629 C 377.9 407.425 387.201 414.62 398.45 420.246 C 404.018 423.029 402.503 432.151 409.618 435.708 C 409.779 435.788 411.406 445.087 411.336 445.157 C 408.569 447.925 400.328 446.715 397.592 449.453 C 393.766 453.278 381.716 452.889 375.257 452.889 C 356.091 452.889 336.471 452.029 316.843 452.029 C 296.757 452.029 271.084 450.674 254.133 456.325 C 243.021 460.029 230.948 456.607 218.912 460.62 C 215.45 461.775 207.285 462.757 203.45 461.479 C 187.181 456.056 166.751 460.127 150.191 454.607 C 131.372 448.333 101.045 448.593 81.468 448.593 C 47.403 448.593 -13.418 464.205 -23.333 424.541 C -30.123 397.384 -37.344 353.179 -27.629 324.034 C -26.143 319.575 -27.629 310.947 -27.629 305.994 C -27.629 290.653 -28.721 274.906 -27.629 259.606 C -24.676 218.261 -22.475 176.524 -22.475 135.047 C -22.475 112.885 -22.592 91.316 -19.897 69.761 C -17.923 53.961 -15.435 36.355 -2.717 25.95 C 34.03 -4.116 81.466 -0.941 127.855 -4.975 C 143.447 -6.331 157.857 -7.563 173.384 -4.975 C 200.093 -0.523 227.02 -10.437 252.415 -11.848 C 285 -13.657 317.355 -10.612 349.486 -7.553 C 368.114 -5.778 386.626 -5.304 402.745 2.756 C 420.919 11.844 440.111 36.253 449.992 56.016 C 454.473 64.978 459.341 77.124 462.019 86.942 C 462.979 90.462 461.237 96.467 463.737 98.968 C 467.271 102.501 463.466 110.723 467.173 114.43 C 468.741 115.998 470.609 132.389 470.609 135.047 C 470.609 148.755 474.791 164.481 468.032 177.999 C 467.133 179.795 458.898 187.132 456.864 189.166 C 448.701 197.33 440.867 211.711 436.248 220.951 C 434.241 224.964 420.785 225.641 420.785 232.118"></path>
    </mask>
  </defs>
  <g style="filter: drop-shadow(rgb(0, 0, 0) -1px -1px 0px) drop-shadow(rgb(0, 0, 0) 2px -1px 0px) drop-shadow(rgb(0, 0, 0) 2px 2px 0px) drop-shadow(rgb(0, 0, 0) -1px 2px 0px); mask: url(#mask-0);" transform="matrix(0.93337, 0, 0, 0.93337, 53.45591, 1.889435)">
    <path d="M 401.546 293.873 L 401.912 434.702 M 396.905 419.582 L 19.357 421.082 M 34.079 170.524 L 401.546 170.524 L 401.546 235.62 L 34.079 235.62 L 34.079 170.524 Z" stroke-width="30" stroke-miterlimit="10"></path>
    <path d="M 38.72 419.565 L 34.079 419.565 L 34.079 235.62 L 401.546 235.62 L 401.546 306.122 M 141.382 235.62 L 207.545 169.456 M 229.042 235.62 L 295.205 169.456 M 53.722 235.62 L 119.885 169.456 M 316.702 235.62 L 382.865 169.456" stroke-width="30" stroke-miterlimit="10"></path>
    <path d="M20.687 61.81h367.467v65.096H20.687z" transform="rotate(-14.046 204.415 94.357)" stroke-width="30" stroke-miterlimit="10"></path>
    <path d="m138.174 144.482 48.127-80.242M223.213 123.207l48.128-80.242M53.134 165.757l48.128-80.243M308.252 101.933 356.38 21.69" stroke-width="30" stroke-miterlimit="10"></path>
  </g>
  <g style="filter: drop-shadow(rgb(0, 0, 0) -1px -1px 0px) drop-shadow(rgb(0, 0, 0) 2px -1px 0px) drop-shadow(rgb(0, 0, 0) 2px 2px 0px) drop-shadow(rgb(0, 0, 0) -1px 2px 0px); mask: url(#mask-1);" transform="matrix(0.93337, 0, 0, 0.93337, 0.38464, 91.324348)">
    <path d="M 401.546 293.873 L 401.912 434.702 M 396.905 419.582 L 19.357 421.082 M 34.079 170.524 L 401.546 170.524 L 401.546 235.62 L 34.079 235.62 L 34.079 170.524 Z" stroke-width="30" stroke-miterlimit="10" style=""></path>
    <path d="M 38.72 419.565 L 34.079 419.565 L 34.079 235.62 L 401.546 235.62 L 401.546 306.122 M 141.382 235.62 L 207.545 169.456 M 229.042 235.62 L 295.205 169.456 M 53.722 235.62 L 119.885 169.456 M 316.702 235.62 L 382.865 169.456" stroke-width="30" stroke-miterlimit="10" style=""></path>
    <path d="M20.687 61.81h367.467v65.096H20.687z" transform="rotate(-14.046 204.415 94.357)" stroke-width="30" stroke-miterlimit="10" style=""></path>
    <path d="m138.174 144.482 48.127-80.242M223.213 123.207l48.128-80.242M53.134 165.757l48.128-80.243M308.252 101.933 356.38 21.69" stroke-width="30" stroke-miterlimit="10" style=""></path>
  </g>
  <g transform="matrix(1, 0, 0, 1, -4.410317, -4.816773)" style="filter: drop-shadow(-1px -1px 0px #000) drop-shadow(2px -1px 0px #000) drop-shadow(2px 2px 0px #000) drop-shadow(-1px 2px 0px #000)">
    <circle cx="401.546" cy="401.635" r="95.513" stroke-width="30" stroke-miterlimit="10" style=""></circle>
    <path d="M401.546 355.387v92.497M447.795 401.635h-92.497M34.079" stroke-width="30" stroke-miterlimit="10" style=""></path>
  </g>
</svg>