<svg xmlns="http://www.w3.org/2000/svg" version="1.1" width="25" height="25" x="0" y="0" viewBox="0 0 512.001 512.001"
    fill="none" stroke="#ecdfcc" xmlns:bx="https://boxy-svg.com">
    <mask id="mask-0">
        <path style="fill: rgba(255, 255, 255); stroke: rgb(0, 0, 0);"
            d="M 298.993 468.641 C 298.993 461.772 308.122 462.868 312.685 460.587 C 319.855 457.002 324.459 448.006 329.598 442.867 C 331.38 441.087 330.104 435.414 331.21 433.203 C 338.455 418.712 338.54 399.294 350.54 387.294 C 356.509 381.324 362.227 373.997 368.259 367.964 C 376.58 359.644 391.575 359.146 398.865 351.856 C 407.45 343.27 441.092 344.148 448.8 351.856 C 451.323 354.379 469.595 351.856 473.768 351.856 C 488.036 351.856 515.81 353.951 522.093 341.385 C 525.537 334.494 526.267 328.204 530.147 320.445 C 532.037 316.665 530.147 306.311 530.147 301.921 C 530.147 288.411 525.903 264.5 531.757 252.79 C 533.368 249.569 530.147 243.931 531.757 240.71 C 534.891 234.441 534.174 223.885 534.174 216.547 C 534.174 197.102 538.99 166.579 530.952 150.503 C 528.204 145.007 531.682 134.093 530.147 127.952 C 527.208 116.197 531.403 99.407 522.898 90.903 C 514.05 82.055 497.088 81.621 485.043 75.599 C 481.749 73.953 470.786 74.47 468.935 70.768 C 467.094 67.086 460.254 66.83 456.854 65.13 C 447.259 60.332 437.669 57.55 428.665 53.048 C 421.995 49.714 412.289 53.318 405.308 49.827 C 391.62 42.982 375.893 42.975 360.205 37.746 C 343.467 32.167 325.939 22.838 307.853 19.221 C 283.561 14.362 259.492 14.388 234.56 14.388 C 225.164 14.388 215.768 14.388 206.371 14.388 C 205.128 14.388 198.425 15.302 197.511 14.388 C 192.529 9.406 184.092 14.927 178.181 11.972 C 167.555 6.66 131.139 6.097 120.998 11.167 C 115.049 14.141 106.198 11.318 100.057 14.388 C 92.206 18.314 80.899 15.51 73.478 19.221 C 64.295 23.813 48.775 21.372 42.067 28.08 C 41.021 29.126 35.606 26.899 34.818 28.08 C 29.64 35.848 14.062 35.95 6.629 43.384 C 0.734 49.278 0.371 67.175 -3.842 75.599 C -6.475 80.867 0.155 96.57 -3.842 100.568 C -10.954 107.681 -2.688 122.422 -7.063 131.174 C -13.09 143.227 -12.569 156.419 -16.727 173.055 C -19.007 182.17 -16.018 200.534 -22.366 206.882 C -24.373 208.889 -21.029 216.29 -22.366 218.963 C -29.833 233.897 -22.366 261.724 -22.366 278.563 C -22.366 282.85 -20.495 291.736 -22.366 295.478 C -28.443 307.632 -32.031 323.138 -32.031 336.554 C -32.031 344.365 -28.663 362.036 -32.031 368.769 C -38.952 382.612 -44.687 414.331 -36.057 431.592 C -33.259 437.189 -38.053 445.321 -35.252 450.922 C -22.516 476.392 6.087 488.505 32.402 501.663 C 48.14 509.531 79.585 504.078 97.64 504.078 C 118.301 504.078 143.208 507.683 161.268 501.663 C 172.483 497.924 184.795 501.98 195.096 496.83 C 201.754 493.501 210.655 496.701 216.842 493.609 C 231.127 486.465 245.809 481.05 263.556 477.5 C 266.194 476.973 279.478 478.492 281.274 476.694 C 284.332 473.638 302.647 466.225 306.242 466.225" />
    </mask>
    <g>
        <g style="mask: url(&quot;#mask-0&quot;);" transform="matrix(0.8941, 0, 0, 0.8941, 1.058998, 3.812497)">
            <path d="M60 166h248.437v212.001H60z" stroke-width="20" stroke-linecap="round" stroke-linejoin="round"
                stroke-miterlimit="2.6131" />
            <path
                d="M10 116.001h492.001v312H10zM358.437 423.001v-302M410.219 216.001h40M410.219 266h40M410.219 316h40M122.253 430.182l-15.911 45.819H35v-43M389.799 430.326l15.861 45.675h71.341v-43M231.232 36.001l-47.014 75.794-47.014-75.794M213.338 221.563 153.65 324.946m51.033 1.606 37.01-64.103m-114.951 19.104 37.009-64.104"
                stroke-width="20" stroke-linecap="round" stroke-miterlimit="2.6131" style="stroke-linejoin: round;" />
        </g>
        <g>
            <circle cx="401.546" cy="401.635" r="95.513" stroke-width="30" stroke-miterlimit="10" />
            <path d="M401.546 355.387v92.497M447.795 401.635h-92.497M34.079" stroke-width="30" stroke-miterlimit="10" />
        </g>
    </g>
</svg>