<svg xmlns="http://www.w3.org/2000/svg" width="25" height="25" x="0" y="0" viewBox="0 0 64 64" fill='#ecdfcc'>
    <g>
        <g data-name="Trash Bin File">
            <path
                d="M23 36a1 1 0 0 0-1 1v19a1 1 0 0 0 2 0V37a1 1 0 0 0-1-1ZM32.105 36.006a.99.99 0 0 0-1.1.89l-2 19a1 1 0 0 0 .89 1.098.97.97 0 0 0 .106.006 1 1 0 0 0 .994-.895l2-19a1 1 0 0 0-.89-1.1ZM13.896 36.006a1 1 0 0 0-.89 1.098l2 19a1 1 0 0 0 .993.896.963.963 0 0 0 .105-.006 1 1 0 0 0 .89-1.098l-2-19a.996.996 0 0 0-1.098-.89ZM15 7h16a1 1 0 0 0 0-2H15a1 1 0 0 0 0 2ZM15 12h11a1 1 0 0 0 0-2H15a1 1 0 0 0 0 2ZM15 17h8a1 1 0 0 0 0-2h-8a1 1 0 0 0 0 2ZM15 22h11a1 1 0 0 0 0-2H15a1 1 0 0 0 0 2ZM31 25H15a1 1 0 0 0 0 2h16a1 1 0 0 0 0-2Z">
            </path>
            <path
                d="m60.715 40.12-5.61-5.74 2.88-2.815a5.006 5.006 0 0 0 .08-7.07l-9.83-10.056a4.969 4.969 0 0 0-3.519-1.505 5.033 5.033 0 0 0-3.551 1.425l-2.88 2.813L37 15.857V4a4.004 4.004 0 0 0-4-4H7a4.004 4.004 0 0 0-4 4v9a1 1 0 0 0 1 1h5v16H6a1 1 0 0 0-.992 1.124l4 32A1 1 0 0 0 10 64h26a1 1 0 0 0 .992-.876l3.968-31.745 14.021 14.345a1 1 0 0 0 1.415.015l4.303-4.206a1 1 0 0 0 .016-1.414ZM42.487 21.47l2.156-2.107 8.416 8.61-2.156 2.107Zm.075-5.683a3.133 3.133 0 0 1 2.13-.854 2.982 2.982 0 0 1 2.112.903l9.83 10.057a3.003 3.003 0 0 1-.048 4.242l-2.878 2.814-1.407-1.439 2.87-2.806a1 1 0 0 0 .017-1.414l-9.814-10.04a1.001 1.001 0 0 0-1.415-.016l-2.87 2.806-1.406-1.439ZM5 12V4a2 2 0 0 1 4 0v8Zm6 1V4a4.105 4.105 0 0 0-.535-2H33a2.002 2.002 0 0 1 2 2v9.808l-2.325-2.377a1.001 1.001 0 0 0-.704-.301 1.125 1.125 0 0 0-.71.285l-4.303 4.208a1 1 0 0 0-.016 1.414L35 25.282V30H11Zm24.117 49H10.883l-3.75-30h31.734ZM37 30v-2.672L39.612 30Zm18.713 13.61L36.72 24.18l-.006-.01-7.641-7.815 2.87-2.81 26.642 27.257Z">
            </path>
        </g>
    </g>
</svg>